<?xml version="1.0" encoding="UTF-8" standalone="no"?>
<!DOCTYPE svg PUBLIC "-//W3C//DTD SVG 1.1//EN" "http://www.w3.org/Graphics/SVG/1.1/DTD/svg11.dtd">
<svg width="100%" height="100%" viewBox="0 0 519 520" version="1.1" xmlns="http://www.w3.org/2000/svg" xmlns:xlink="http://www.w3.org/1999/xlink" xml:space="preserve" xmlns:serif="http://www.serif.com/" style="fill-rule:evenodd;clip-rule:evenodd;stroke-linecap:round;stroke-linejoin:round;">
    <g transform="matrix(1,0,0,1,-5438,-7116)">
        <g transform="matrix(1,0,0,1,411.613,9.09495e-13)">
            <g id="BHorse">
                <g transform="matrix(15.6861,0,0,15.6861,4940.71,7014.26)">
                    <path d="M22,10C32.5,11 38.5,18 38,39L15,39C15,30 25,32.5 23,18" style="stroke:black;stroke-width:0.95px;"/>
                </g>
                <g transform="matrix(15.6861,0,0,15.6861,4940.71,7014.26)">
                    <path d="M24,18C24.38,20.91 18.45,25.37 16,27C13,29 13.18,31.34 11,31C9.958,30.06 12.41,27.96 11,28C10,28 11.19,29.23 10,30C9,30 5.997,31 6,26C6,24 12,14 12,14C12,14 13.89,12.1 14,10.5C13.27,9.506 13.5,8.5 13.5,7.5C14.5,6.5 16.5,10 16.5,10L18.5,10C18.5,10 19.28,8.008 21,7C22,7 22,10 22,10" style="stroke:black;stroke-width:0.95px;"/>
                </g>
                <g transform="matrix(15.6861,0,0,15.6861,4940.71,7014.26)">
                    <path d="M9.5,25.5C9.5,25.774 9.274,26 9,26C8.726,26 8.5,25.774 8.5,25.5C8.5,25.226 8.726,25 9,25C9.274,25 9.5,25.226 9.5,25.5Z" style="fill:white;stroke:white;stroke-width:0.95px;"/>
                </g>
                <g transform="matrix(13.5842,7.84305,-7.84305,13.5842,5092.76,6933.11)">
                    <path d="M15,15.5C15,16.323 14.774,17 14.5,17C14.226,17 14,16.323 14,15.5C14,14.677 14.226,14 14.5,14C14.774,14 15,14.677 15,15.5Z" style="fill:white;stroke:white;stroke-width:0.95px;"/>
                </g>
                <g transform="matrix(15.6861,0,0,15.6861,4940.71,7014.26)">
                    <path d="M24.55,10.4L24.1,11.85L24.6,12C27.75,13 30.25,14.49 32.5,18.75C34.75,23.01 35.75,29.06 35.25,39L35.2,39.5L37.45,39.5L37.5,39C38,28.94 36.62,22.15 34.25,17.66C31.88,13.17 28.46,11.02 25.06,10.5L24.55,10.4Z" style="fill:white;stroke:black;stroke-width:0.25px;stroke-linecap:butt;stroke-miterlimit:2;"/>
                </g>
            </g>
        </g>
    </g>
</svg>
