<?xml version="1.0" encoding="UTF-8" standalone="no"?>
<!DOCTYPE svg PUBLIC "-//W3C//DTD SVG 1.1//EN" "http://www.w3.org/Graphics/SVG/1.1/DTD/svg11.dtd">
<svg width="100%" height="100%" viewBox="0 0 538 567" version="1.1" xmlns="http://www.w3.org/2000/svg" xmlns:xlink="http://www.w3.org/1999/xlink" xml:space="preserve" xmlns:serif="http://www.serif.com/" style="fill-rule:evenodd;clip-rule:evenodd;stroke-linecap:round;">
    <g transform="matrix(1,0,0,1,-3318,-7077)">
        <g transform="matrix(1,0,0,1,411.613,9.09495e-13)">
            <g id="BlackKing">
                <g transform="matrix(15.6861,0,0,15.6861,2823.09,7014.26)">
                    <path d="M22.5,11.63L22.5,6" style="fill:none;stroke:black;stroke-width:0.95px;"/>
                </g>
                <g transform="matrix(15.6861,0,0,15.6861,2823.09,7014.26)">
                    <path d="M22.5,25C22.5,25 27,17.5 25.5,14.5C25.5,14.5 24.5,12 22.5,12C20.5,12 19.5,14.5 19.5,14.5C18,17.5 22.5,25 22.5,25" style="stroke:black;stroke-width:0.95px;stroke-linecap:butt;"/>
                </g>
                <g transform="matrix(15.6861,0,0,15.6861,2823.09,7014.26)">
                    <path d="M11.5,37C17,40.5 27,40.5 32.5,37L32.5,30C32.5,30 41.5,25.5 38.5,19.5C34.5,13 25,16 22.5,23.5L22.5,27L22.5,23.5C19,16 9.5,13 6.5,19.5C3.5,25.5 11.5,29.5 11.5,29.5L11.5,37Z" style="stroke:black;stroke-width:0.95px;stroke-linejoin:round;"/>
                </g>
                <g transform="matrix(15.6861,0,0,15.6861,2823.09,7014.26)">
                    <path d="M20,8L25,8" style="fill:none;stroke:black;stroke-width:0.95px;"/>
                </g>
                <g transform="matrix(15.6861,0,0,15.6861,2823.09,7014.26)">
                    <path d="M32,29.5C32,29.5 40.5,25.5 38.03,19.85C34.15,14 25,18 22.5,24.5L22.51,26.6L22.5,24.5C20,18 9.906,14 6.997,19.85C4.5,25.5 11.85,28.85 11.85,28.85" style="fill:none;stroke:white;stroke-width:0.95px;stroke-linejoin:round;"/>
                </g>
                <g transform="matrix(15.6861,0,0,15.6861,2823.09,7014.26)">
                    <path d="M11.5,30C17,27 27,27 32.5,30M11.5,33.5C17,30.5 27,30.5 32.5,33.5M11.5,37C17,34 27,34 32.5,37" style="fill:none;stroke:white;stroke-width:0.95px;stroke-linejoin:round;"/>
                </g>
            </g>
        </g>
    </g>
</svg>
