<?xml version="1.0" encoding="UTF-8" standalone="no"?>
<!DOCTYPE svg PUBLIC "-//W3C//DTD SVG 1.1//EN" "http://www.w3.org/Graphics/SVG/1.1/DTD/svg11.dtd">
<svg width="100%" height="100%" viewBox="0 0 423 541" version="1.1" xmlns="http://www.w3.org/2000/svg" xmlns:xlink="http://www.w3.org/1999/xlink" xml:space="preserve" xmlns:serif="http://www.serif.com/" style="fill-rule:evenodd;clip-rule:evenodd;stroke-linecap:round;">
    <g transform="matrix(1,0,0,1,-6898,-7124)">
        <g transform="matrix(1,0,0,1,411.613,9.09495e-13)">
            <g transform="matrix(15.6861,0,0,15.6861,6352.46,7014.26)">
                <g id="BPawn">
                    <path d="M22,9C19.79,9 18,10.79 18,13C18,13.89 18.29,14.71 18.78,15.38C16.83,16.5 15.5,18.59 15.5,21C15.5,23.03 16.44,24.84 17.91,26.03C14.91,27.09 10.5,31.58 10.5,39.5L33.5,39.5C33.5,31.58 29.09,27.09 26.09,26.03C27.56,24.84 28.5,23.03 28.5,21C28.5,18.59 27.17,16.5 25.22,15.38C25.71,14.71 26,13.89 26,13C26,10.79 24.21,9 22,9Z" style="fill-rule:nonzero;stroke:black;stroke-width:0.95px;"/>
                </g>
            </g>
        </g>
    </g>
</svg>
