<?xml version="1.0" encoding="UTF-8" standalone="no"?>
<!DOCTYPE svg PUBLIC "-//W3C//DTD SVG 1.1//EN" "http://www.w3.org/Graphics/SVG/1.1/DTD/svg11.dtd">
<svg width="100%" height="100%" viewBox="0 0 533 538" version="1.1" xmlns="http://www.w3.org/2000/svg" xmlns:xlink="http://www.w3.org/1999/xlink" xml:space="preserve" xmlns:serif="http://www.serif.com/" style="fill-rule:evenodd;clip-rule:evenodd;stroke-linejoin:round;">
    <g transform="matrix(1,0,0,1,-4733,-6387)">
        <g transform="matrix(1,0,0,1,411.613,9.09495e-13)">
            <g id="WBishop">
                <g transform="matrix(15.6861,0,0,15.6861,4234.84,6308.38)">
                    <path d="M9,36C12.39,35.03 19.11,36.43 22.5,34C25.89,36.43 32.61,35.03 36,36C36,36 37.65,36.54 39,38C38.32,38.97 37.35,38.99 36,38.5C32.61,37.53 25.89,38.96 22.5,37.5C19.11,38.96 12.39,37.53 9,38.5C7.646,38.99 6.677,38.97 6,38C7.354,36.06 9,36 9,36Z" style="fill:white;stroke:black;stroke-width:0.95px;"/>
                    <path d="M15,32C17.5,34.5 27.5,34.5 30,32C30.5,30.5 30,30 30,30C30,27.5 27.5,26 27.5,26C33,24.5 33.5,14.5 22.5,10.5C11.5,14.5 12,24.5 17.5,26C17.5,26 15,27.5 15,30C15,30 14.5,30.5 15,32Z" style="fill:white;stroke:black;stroke-width:0.95px;"/>
                    <path d="M25,8C25,9.371 23.871,10.5 22.5,10.5C21.129,10.5 20,9.371 20,8C20,6.629 21.129,5.5 22.5,5.5C23.871,5.5 25,6.629 25,8Z" style="fill:white;stroke:black;stroke-width:0.95px;"/>
                </g>
                <g transform="matrix(15.6861,0,0,15.6861,4234.84,6308.38)">
                    <path d="M17.5,26L27.5,26M15,30L30,30M22.5,15.5L22.5,20.5M20,18L25,18" style="fill:none;stroke:black;stroke-width:0.95px;stroke-linecap:round;stroke-linejoin:miter;"/>
                </g>
            </g>
        </g>
    </g>
</svg>
